<?xml version="1.0" encoding="UTF-8" standalone="no"?>
<svg
   xmlns:dc="http://purl.org/dc/elements/1.1/"
   xmlns:cc="http://creativecommons.org/ns#"
   xmlns:rdf="http://www.w3.org/1999/02/22-rdf-syntax-ns#"
   xmlns:svg="http://www.w3.org/2000/svg"
   xmlns="http://www.w3.org/2000/svg"
   xmlns:sodipodi="http://sodipodi.sourceforge.net/DTD/sodipodi-0.dtd"
   xmlns:inkscape="http://www.inkscape.org/namespaces/inkscape"
   width="74.860382mm"
   height="12.692261mm"
   viewBox="0 0 74.860385 12.692261"
   version="1.1"
   id="svg18613"
   inkscape:version="1.0.1 (3bc2e81, 2020-09-07)"
   sodipodi:docname="AvatarSA.svg"
   inkscape:export-filename="/media/mint/3E15-0885/SILVIA/AvatarSA.png"
   inkscape:export-xdpi="96"
   inkscape:export-ydpi="96">
  <defs
     id="defs18607" />
  <sodipodi:namedview
     id="base"
     pagecolor="#ffffff"
     bordercolor="#666666"
     borderopacity="1.0"
     inkscape:pageopacity="0.0"
     inkscape:pageshadow="2"
     inkscape:zoom="1.979899"
     inkscape:cx="122.65897"
     inkscape:cy="52.835909"
     inkscape:document-units="mm"
     inkscape:current-layer="layer1"
     inkscape:document-rotation="0"
     showgrid="false"
     inkscape:window-width="1366"
     inkscape:window-height="720"
     inkscape:window-x="0"
     inkscape:window-y="20"
     inkscape:window-maximized="0" />
  <metadata
     id="metadata18610">
    <rdf:RDF>
      <cc:Work
         rdf:about="">
        <dc:format>image/svg+xml</dc:format>
        <dc:type
           rdf:resource="http://purl.org/dc/dcmitype/StillImage" />
        <dc:title />
      </cc:Work>
    </rdf:RDF>
  </metadata>
  <g
     inkscape:label="Layer 1"
     inkscape:groupmode="layer"
     id="layer1"
     transform="translate(-8.589632,-7.1769943)">
    <g
       id="g18577"
       transform="matrix(0.52548381,0,0,0.52548381,-1.62312,-56.894902)">
      <path
         d="m 24.88392,138.97305 4.93889,5.64445 h 1.41111 l 4.93889,-5.64445 -1.76389,-0.35277 -3.88055,4.23333 -3.88056,-4.23333 -1.76389,0.35277"
         style="fill:#0088aa;fill-opacity:1;fill-rule:nonzero;stroke:none;stroke-width:0.0352778"
         id="path1034" />
      <path
         d="m 39.64132,131.01615 c -0.1083,-0.16228 -0.32702,-0.20567 -0.4893,-0.0977 -0.10054,0.0667 -0.15522,0.17639 -0.15699,0.28857 -0.002,-0.11218 -0.0564,-0.22189 -0.15698,-0.28857 -0.16299,-0.10795 -0.38171,-0.0646 -0.4893,0.0977 -0.50024,0.75071 -0.76483,1.62419 -0.76483,2.52589 v 1.19768 c 0,0.19509 0.15769,0.35278 0.35278,0.35278 h 2.11667 c 0.19508,0 0.35278,-0.15769 0.35278,-0.35278 v -1.19768 c 0,-0.9017 -0.26459,-1.77518 -0.76483,-2.52589"
         style="fill:#0088aa;fill-opacity:1;fill-rule:nonzero;stroke:none;stroke-width:0.0352778"
         id="path1036" />
      <path
         d="M 39.85687,144.97027 H 21.19986 l 1.57022,-4.18711 c 0.49212,-1.31234 1.65841,-2.2599 3.04341,-2.47298 l 2.54459,-0.39123 0.10724,0.69709 -2.54458,0.39159 c -1.13313,0.17427 -2.08739,0.94967 -2.48991,2.02353 l -1.21285,3.23356 h 16.62077 l -1.21285,-3.23356 c -0.40252,-1.07386 -1.35678,-1.84926 -2.4899,-2.02353 l -2.54459,-0.39159 0.10725,-0.69709 2.54458,0.39123 c 1.38501,0.21308 2.55129,1.16064 3.04342,2.47298 l 1.57021,4.18711"
         style="fill:#000000;fill-opacity:1;fill-rule:nonzero;stroke:none;stroke-width:0.0352778"
         id="path1038" />
      <path
         d="m 30.52837,140.38416 c -1.18957,0 -2.2225,-0.84666 -2.45569,-2.0133 l -0.0138,-0.10336 v -0.70556 h 0.70556 v 0.67028 c 0.16792,0.8382 0.90946,1.44639 1.76389,1.44639 0.85442,0 1.59596,-0.60819 1.76389,-1.44639 v -0.67028 h 0.70555 l -0.007,0.77541 c -0.23989,1.20015 -1.27283,2.04681 -2.46239,2.04681"
         style="fill:#000000;fill-opacity:1;fill-rule:nonzero;stroke:none;stroke-width:0.0352778"
         id="path1040" />
      <path
         d="m 30.52837,138.2675 c -2.72345,0 -4.93889,-2.21545 -4.93889,-4.93889 v -3.52778 h 0.70555 v 3.52778 c 0,2.33433 1.89901,4.23333 4.23334,4.23333 2.33433,0 4.23333,-1.899 4.23333,-4.23333 v -3.52778 h 0.70556 v 3.52778 c 0,2.72344 -2.21545,4.93889 -4.93889,4.93889"
         style="fill:#000000;fill-opacity:1;fill-rule:nonzero;stroke:none;stroke-width:0.0352778"
         id="path1042" />
      <path
         d="m 35.11448,134.38694 v -0.70555 c 0.58349,0 1.05833,-0.47484 1.05833,-1.05834 0,-0.58349 -0.47484,-1.05833 -1.05833,-1.05833 v -0.70556 c 0.97261,0 1.76389,0.79128 1.76389,1.76389 0,0.97261 -0.79128,1.76389 -1.76389,1.76389"
         style="fill:#000000;fill-opacity:1;fill-rule:nonzero;stroke:none;stroke-width:0.0352778"
         id="path1044" />
      <path
         d="m 25.94226,134.38694 c -0.97261,0 -1.76389,-0.79128 -1.76389,-1.76389 0,-0.97261 0.79128,-1.76389 1.76389,-1.76389 v 0.70556 c -0.5835,0 -1.05834,0.47484 -1.05834,1.05833 0,0.5835 0.47484,1.05834 1.05834,1.05834 v 0.70555"
         style="fill:#000000;fill-opacity:1;fill-rule:nonzero;stroke:none;stroke-width:0.0352778"
         id="path1046" />
      <path
         d="m 36.87837,132.62305 h -0.70556 v -2.82222 h 0.70556 v 2.82222"
         style="fill:#000000;fill-opacity:1;fill-rule:nonzero;stroke:none;stroke-width:0.0352778"
         id="path1048" />
      <path
         d="m 24.88392,132.62305 h -0.70555 v -2.82222 h 0.70555 v 2.82222"
         style="fill:#000000;fill-opacity:1;fill-rule:nonzero;stroke:none;stroke-width:0.0352778"
         id="path1050" />
      <path
         d="m 28.4117,131.21194 c 0,0.19509 -0.15769,0.35278 -0.35278,0.35278 -0.19508,0 -0.35278,-0.15769 -0.35278,-0.35278 0,-0.19508 0.1577,-0.35278 0.35278,-0.35278 0.19509,0 0.35278,0.1577 0.35278,0.35278"
         style="fill:#000000;fill-opacity:1;fill-rule:nonzero;stroke:none;stroke-width:0.0352778"
         id="path1052" />
      <path
         d="m 33.35059,131.21194 c 0,0.19509 -0.15769,0.35278 -0.35278,0.35278 -0.19508,0 -0.35278,-0.15769 -0.35278,-0.35278 0,-0.19508 0.1577,-0.35278 0.35278,-0.35278 0.19509,0 0.35278,0.1577 0.35278,0.35278"
         style="fill:#000000;fill-opacity:1;fill-rule:nonzero;stroke:none;stroke-width:0.0352778"
         id="path1054" />
      <path
         d="m 30.52837,136.85639 c -1.55611,0 -2.82223,-1.26612 -2.82223,-2.82223 h 0.70556 c 0,1.16735 0.94933,2.11667 2.11667,2.11667 1.16734,0 2.11666,-0.94932 2.11666,-2.11667 h 0.70556 c 0,1.55611 -1.26612,2.82223 -2.82222,2.82223"
         style="fill:#000000;fill-opacity:1;fill-rule:nonzero;stroke:none;stroke-width:0.0352778"
         id="path1056" />
      <path
         d="m 38.99503,129.44805 c -0.38911,0 -0.70555,0.31644 -0.70555,0.70556 0,0.38911 0.31644,0.70556 0.70555,0.70556 0.38912,0 0.70556,-0.31645 0.70556,-0.70556 0,-0.38912 -0.31644,-0.70556 -0.70556,-0.70556 z m 0,2.11667 c -0.77822,0 -1.41111,-0.63288 -1.41111,-1.41111 0,-0.77823 0.63289,-1.41111 1.41111,-1.41111 0.77823,0 1.41112,0.63288 1.41112,1.41111 0,0.77823 -0.63289,1.41111 -1.41112,1.41111"
         style="fill:#000000;fill-opacity:1;fill-rule:nonzero;stroke:none;stroke-width:0.0352778"
         id="path1058" />
      <path
         d="m 40.40615,125.92028 h -4.23334 v -0.70556 h 3.52778 v -1.41111 H 21.35614 v 1.41111 h 14.11112 v 0.70556 H 20.65059 v -2.82223 h 19.75556 v 2.82223"
         style="fill:#000000;fill-opacity:1;fill-rule:nonzero;stroke:none;stroke-width:0.0352778"
         id="path1060" />
      <path
         d="m 39.34781,129.09528 h -0.70555 v -3.52778 h 0.70555 v 3.52778"
         style="fill:#000000;fill-opacity:1;fill-rule:nonzero;stroke:none;stroke-width:0.0352778"
         id="path1062" />
      <path
         d="m 30.52837,143.37537 -4.14056,-4.51662 0.52,-0.47695 3.62056,3.95005 3.62056,-3.95005 0.51999,0.47695 -4.14055,4.51662"
         style="fill:#000000;fill-opacity:1;fill-rule:nonzero;stroke:none;stroke-width:0.0352778"
         id="path1064" />
      <path
         d="M 37.58392,130.15361 H 23.47281 v -4.58611 h 0.70556 v 3.88055 h 12.7 v -3.88055 h 0.70555 v 4.58611"
         style="fill:#000000;fill-opacity:1;fill-rule:nonzero;stroke:none;stroke-width:0.0352778"
         id="path1066" />
      <path
         d="m 26.49365,138.89333 c -3.08363,-0.72285 -4.29648,-2.1015 -4.34693,-2.16006 l -0.29492,-0.34255 0.40499,-0.20285 c 1.18533,-0.59266 1.92158,-1.78399 1.92158,-3.10903 v -0.45579 h 0.70555 v 0.45579 c 0,1.42522 -0.70838,2.72204 -1.87713,3.49039 0.51223,0.41451 1.65982,1.17122 3.64843,1.63724 l -0.16157,0.68686"
         style="fill:#000000;fill-opacity:1;fill-rule:nonzero;stroke:none;stroke-width:0.0352778"
         id="path1068" />
      <path
         d="m 34.56309,138.89333 -0.16158,-0.68686 c 1.98791,-0.46602 3.13549,-1.22238 3.64843,-1.63724 -1.1691,-0.76835 -1.87713,-2.06517 -1.87713,-3.49039 v -0.45579 h 0.70556 v 0.45579 c 0,1.32504 0.73624,2.51637 1.92158,3.10903 l 0.40499,0.20285 -0.29493,0.34255 c -0.0504,0.0586 -1.26329,1.43722 -4.34692,2.16006"
         style="fill:#000000;fill-opacity:1;fill-rule:nonzero;stroke:none;stroke-width:0.0352778"
         id="path1070" />
    </g>
    <text
       xml:space="preserve"
       style="font-size:6.7512px;line-height:1.25;font-family:sans-serif;stroke-width:0.253169;fill:#00667f;fill-opacity:1;"
       x="24.736742"
       y="16.07688"
       id="text422"><tspan
         sodipodi:role="line"
         id="tspan420"
         x="24.736742"
         y="16.07688"
         style="font-style:normal;font-variant:normal;font-weight:600;font-stretch:normal;font-family:Raleway;-inkscape-font-specification:'Raleway Semi-Bold';stroke-width:0.253169;fill:#00667f;fill-opacity:1;">Sílvia de Almeida</tspan></text>
  </g>
</svg>
