<?xml version="1.0" encoding="UTF-8" standalone="no"?>
<svg
   xmlns:dc="http://purl.org/dc/elements/1.1/"
   xmlns:cc="http://creativecommons.org/ns#"
   xmlns:rdf="http://www.w3.org/1999/02/22-rdf-syntax-ns#"
   xmlns:svg="http://www.w3.org/2000/svg"
   xmlns="http://www.w3.org/2000/svg"
   xmlns:sodipodi="http://sodipodi.sourceforge.net/DTD/sodipodi-0.dtd"
   xmlns:inkscape="http://www.inkscape.org/namespaces/inkscape"
   width="74.860382mm"
   height="12.692261mm"
   viewBox="0 0 74.860385 12.692261"
   version="1.1"
   id="svg18613"
   inkscape:version="1.0.1 (3bc2e81, 2020-09-07)"
   sodipodi:docname="AvatarSA.svg"
   inkscape:export-filename="/media/mint/3E15-0885/SILVIA/AvatarSA.png"
   inkscape:export-xdpi="96"
   inkscape:export-ydpi="96">
  <defs
     id="defs18607" />
  <sodipodi:namedview
     id="base"
     pagecolor="#ffffff"
     bordercolor="#666666"
     borderopacity="1.0"
     inkscape:pageopacity="0.0"
     inkscape:pageshadow="2"
     inkscape:zoom="1.979899"
     inkscape:cx="122.65897"
     inkscape:cy="52.835909"
     inkscape:document-units="mm"
     inkscape:current-layer="layer1"
     inkscape:document-rotation="0"
     showgrid="false"
     inkscape:window-width="1366"
     inkscape:window-height="720"
     inkscape:window-x="0"
     inkscape:window-y="20"
     inkscape:window-maximized="0" />
  <metadata
     id="metadata18610">
    <rdf:RDF>
      <cc:Work
         rdf:about="">
        <dc:format>image/svg+xml</dc:format>
        <dc:type
           rdf:resource="http://purl.org/dc/dcmitype/StillImage" />
        <dc:title />
      </cc:Work>
    </rdf:RDF>
  </metadata>
  <g
     inkscape:label="Layer 1"
     inkscape:groupmode="layer"
     id="layer1"
     transform="translate(-8.589632,-7.1769943)">
    <g
       id="g18577"
       transform="matrix(0.52548381,0,0,0.52548381,-1.62312,-56.894902)">
      <path
         d="m 24.88392,138.97305 4.93889,5.64445 h 1.41111 l 4.93889,-5.64445 -1.76389,-0.35277 -3.88055,4.23333 -3.88056,-4.23333 -1.76389,0.35277"
         style="fill:#0088aa;fill-opacity:1;fill-rule:nonzero;stroke:none;stroke-width:0.0352778"
         id="path1034" />
      <path
         d="m 39.64132,131.01615 c -0.1083,-0.16228 -0.32702,-0.20567 -0.4893,-0.0977 -0.10054,0.0667 -0.15522,0.17639 -0.15699,0.28857 -0.002,-0.11218 -0.0564,-0.22189 -0.15698,-0.28857 -0.16299,-0.10795 -0.38171,-0.0646 -0.4893,0.0977 -0.50024,0.75071 -0.76483,1.62419 -0.76483,2.52589 v 1.19768 c 0,0.19509 0.15769,0.35278 0.35278,0.35278 h 2.11667 c 0.19508,0 0.35278,-0.15769 0.35278,-0.35278 v -1.19768 c 0,-0.9017 -0.26459,-1.77518 -0.76483,-2.52589"
         style="fill:#0088aa;fill-opacity:1;fill-rule:nonzero;stroke:none;stroke-width:0.0352778"
         id="path1036" />
      <path
         d="M 39.85687,144.97027 H 21.19986 l 1.57022,-4.18711 c 0.49212,-1.31234 1.65841,-2.2599 3.04341,-2.47298 l 2.54459,-0.39123 0.10724,0.69709 -2.54458,0.39159 c -1.13313,0.17427 -2.08739,0.94967 -2.48991,2.02353 l -1.21285,3.23356 h 16.62077 l -1.21285,-3.23356 c -0.40252,-1.07386 -1.35678,-1.84926 -2.4899,-2.02353 l -2.54459,-0.39159 0.10725,-0.69709 2.54458,0.39123 c 1.38501,0.21308 2.55129,1.16064 3.04342,2.47298 l 1.57021,4.18711"
         style="fill:#000000;fill-opacity:1;fill-rule:nonzero;stroke:none;stroke-width:0.0352778"
         id="path1038" />
      <path
         d="m 30.52837,140.38416 c -1.18957,0 -2.2225,-0.84666 -2.45569,-2.0133 l -0.0138,-0.10336 v -0.70556 h 0.70556 v 0.67028 c 0.16792,0.8382 0.90946,1.44639 1.76389,1.44639 0.85442,0 1.59596,-0.60819 1.76389,-1.44639 v -0.67028 h 0.70555 l -0.007,0.77541 c -0.23989,1.20015 -1.27283,2.04681 -2.46239,2.04681"
         style="fill:#000000;fill-opacity:1;fill-rule:nonzero;stroke:none;stroke-width:0.0352778"
         id="path1040" />
      <path
         d="m 30.52837,138.2675 c -2.72345,0 -4.93889,-2.21545 -4.93889,-4.93889 v -3.52778 h 0.70555 v 3.52778 c 0,2.33433 1.89901,4.23333 4.23334,4.23333 2.33433,0 4.23333,-1.899 4.23333,-4.23333 v -3.52778 h 0.70556 v 3.52778 c 0,2.72344 -2.21545,4.93889 -4.93889,4.93889"
         style="fill:#000000;fill-opacity:1;fill-rule:nonzero;stroke:none;stroke-width:0.0352778"
         id="path1042" />
      <path
         d="m 35.11448,134.38694 v -0.70555 c 0.58349,0 1.05833,-0.47484 1.05833,-1.05834 0,-0.58349 -0.47484,-1.05833 -1.05833,-1.05833 v -0.70556 c 0.97261,0 1.76389,0.79128 1.76389,1.76389 0,0.97261 -0.79128,1.76389 -1.76389,1.76389"
         style="fill:#000000;fill-opacity:1;fill-rule:nonzero;stroke:none;stroke-width:0.0352778"
         id="path1044" />
      <path
         d="m 25.94226,134.38694 c -0.97261,0 -1.76389,-0.79128 -1.76389,-1.76389 0,-0.97261 0.79128,-1.76389 1.76389,-1.76389 v 0.70556 c -0.5835,0 -1.05834,0.47484 -1.05834,1.05833 0,0.5835 0.47484,1.05834 1.05834,1.05834 v 0.70555"
         style="fill:#000000;fill-opacity:1;fill-rule:nonzero;stroke:none;stroke-width:0.0352778"
         id="path1046" />
      <path
         d="m 36.87837,132.62305 h -0.70556 v -2.82222 h 0.70556 v 2.82222"
         style="fill:#000000;fill-opacity:1;fill-rule:nonzero;stroke:none;stroke-width:0.0352778"
         id="path1048" />
      <path
         d="m 24.88392,132.62305 h -0.70555 v -2.82222 h 0.70555 v 2.82222"
         style="fill:#000000;fill-opacity:1;fill-rule:nonzero;stroke:none;stroke-width:0.0352778"
         id="path1050" />
      <path
         d="m 28.4117,131.21194 c 0,0.19509 -0.15769,0.35278 -0.35278,0.35278 -0.19508,0 -0.35278,-0.15769 -0.35278,-0.35278 0,-0.19508 0.1577,-0.35278 0.35278,-0.35278 0.19509,0 0.35278,0.1577 0.35278,0.35278"
         style="fill:#000000;fill-opacity:1;fill-rule:nonzero;stroke:none;stroke-width:0.0352778"
         id="path1052" />
      <path
         d="m 33.35059,131.21194 c 0,0.19509 -0.15769,0.35278 -0.35278,0.35278 -0.19508,0 -0.35278,-0.15769 -0.35278,-0.35278 0,-0.19508 0.1577,-0.35278 0.35278,-0.35278 0.19509,0 0.35278,0.1577 0.35278,0.35278"
         style="fill:#000000;fill-opacity:1;fill-rule:nonzero;stroke:none;stroke-width:0.0352778"
         id="path1054" />
      <path
         d="m 30.52837,136.85639 c -1.55611,0 -2.82223,-1.26612 -2.82223,-2.82223 h 0.70556 c 0,1.16735 0.94933,2.11667 2.11667,2.11667 1.16734,0 2.11666,-0.94932 2.11666,-2.11667 h 0.70556 c 0,1.55611 -1.26612,2.82223 -2.82222,2.82223"
         style="fill:#000000;fill-opacity:1;fill-rule:nonzero;stroke:none;stroke-width:0.0352778"
         id="path1056" />
      <path
         d="m 38.99503,129.44805 c -0.38911,0 -0.70555,0.31644 -0.70555,0.70556 0,0.38911 0.31644,0.70556 0.70555,0.70556 0.38912,0 0.70556,-0.31645 0.70556,-0.70556 0,-0.38912 -0.31644,-0.70556 -0.70556,-0.70556 z m 0,2.11667 c -0.77822,0 -1.41111,-0.63288 -1.41111,-1.41111 0,-0.77823 0.63289,-1.41111 1.41111,-1.41111 0.77823,0 1.41112,0.63288 1.41112,1.41111 0,0.77823 -0.63289,1.41111 -1.41112,1.41111"
         style="fill:#000000;fill-opacity:1;fill-rule:nonzero;stroke:none;stroke-width:0.0352778"
         id="path1058" />
      <path
         d="m 40.40615,125.92028 h -4.23334 v -0.70556 h 3.52778 v -1.41111 H 21.35614 v 1.41111 h 14.11112 v 0.70556 H 20.65059 v -2.82223 h 19.75556 v 2.82223"
         style="fill:#000000;fill-opacity:1;fill-rule:nonzero;stroke:none;stroke-width:0.0352778"
         id="path1060" />
      <path
         d="m 39.34781,129.09528 h -0.70555 v -3.52778 h 0.70555 v 3.52778"
         style="fill:#000000;fill-opacity:1;fill-rule:nonzero;stroke:none;stroke-width:0.0352778"
         id="path1062" />
      <path
         d="m 30.52837,143.37537 -4.14056,-4.51662 0.52,-0.47695 3.62056,3.95005 3.62056,-3.95005 0.51999,0.47695 -4.14055,4.51662"
         style="fill:#000000;fill-opacity:1;fill-rule:nonzero;stroke:none;stroke-width:0.0352778"
         id="path1064" />
      <path
         d="M 37.58392,130.15361 H 23.47281 v -4.58611 h 0.70556 v 3.88055 h 12.7 v -3.88055 h 0.70555 v 4.58611"
         style="fill:#000000;fill-opacity:1;fill-rule:nonzero;stroke:none;stroke-width:0.0352778"
         id="path1066" />
      <path
         d="m 26.49365,138.89333 c -3.08363,-0.72285 -4.29648,-2.1015 -4.34693,-2.16006 l -0.29492,-0.34255 0.40499,-0.20285 c 1.18533,-0.59266 1.92158,-1.78399 1.92158,-3.10903 v -0.45579 h 0.70555 v 0.45579 c 0,1.42522 -0.70838,2.72204 -1.87713,3.49039 0.51223,0.41451 1.65982,1.17122 3.64843,1.63724 l -0.16157,0.68686"
         style="fill:#000000;fill-opacity:1;fill-rule:nonzero;stroke:none;stroke-width:0.0352778"
         id="path1068" />
      <path
         d="m 34.56309,138.89333 -0.16158,-0.68686 c 1.98791,-0.46602 3.13549,-1.22238 3.64843,-1.63724 -1.1691,-0.76835 -1.87713,-2.06517 -1.87713,-3.49039 v -0.45579 h 0.70556 v 0.45579 c 0,1.32504 0.73624,2.51637 1.92158,3.10903 l 0.40499,0.20285 -0.29493,0.34255 c -0.0504,0.0586 -1.26329,1.43722 -4.34692,2.16006"
         style="fill:#000000;fill-opacity:1;fill-rule:nonzero;stroke:none;stroke-width:0.0352778"
         id="path1070" />
    </g>
    <g
       aria-label="Sílvia de Almeida"
       id="text422"
       style="font-size:6.7512px;line-height:1.25;font-family:sans-serif;fill:#00667f;fill-opacity:1;stroke-width:0.253169">
      <path
         d="m 29.482287,12.667313 q -0.02025,-0.03376 -0.141775,-0.101268 -0.121522,-0.07426 -0.303804,-0.155278 -0.182283,-0.08101 -0.398321,-0.141775 -0.216039,-0.06076 -0.432077,-0.06076 -0.28355,0 -0.438828,0.101268 -0.155278,0.09452 -0.155278,0.297053 0,0.162029 0.114771,0.256546 0.121521,0.09452 0.344311,0.16878 0.22279,0.06751 0.546847,0.162029 0.459082,0.121521 0.796642,0.297052 0.33756,0.16878 0.513091,0.438828 0.182282,0.270049 0.182282,0.715628 0,0.405072 -0.148526,0.688622 -0.148526,0.276799 -0.405072,0.452331 -0.249794,0.16878 -0.573852,0.249794 -0.324058,0.07426 -0.668369,0.07426 -0.351062,0 -0.722378,-0.06751 -0.364565,-0.07426 -0.702125,-0.202536 -0.33756,-0.135024 -0.62111,-0.324057 l 0.486086,-0.965422 q 0.027,0.03376 0.175531,0.128273 0.148527,0.08776 0.364565,0.189033 0.22279,0.09452 0.492838,0.16878 0.270048,0.07426 0.546847,0.07426 0.297053,0 0.438828,-0.09452 0.148526,-0.09452 0.148526,-0.263297 0,-0.182282 -0.155277,-0.28355 -0.148527,-0.101268 -0.411824,-0.182283 -0.256545,-0.08101 -0.594105,-0.182282 -0.438828,-0.135024 -0.72913,-0.303804 -0.28355,-0.16878 -0.425325,-0.411824 -0.135024,-0.243043 -0.135024,-0.607608 0,-0.50634 0.236292,-0.850651 0.243043,-0.351062 0.648115,-0.526593 0.405072,-0.182283 0.884407,-0.182283 0.33756,0 0.648115,0.08101 0.317307,0.08101 0.587355,0.202536 0.276799,0.121521 0.492837,0.243043 z"
         style="font-style:normal;font-variant:normal;font-weight:800;font-stretch:normal;font-family:Raleway;-inkscape-font-specification:'Raleway Ultra-Bold';fill:#00667f;fill-opacity:1;stroke-width:0.253169"
         id="path860" />
      <path
         d="m 30.670497,16.056416 v -3.544381 h 1.080192 v 3.544381 z m 0.891158,-3.861687 -0.688622,-0.189034 0.351062,-0.877656 h 0.978924 z"
         style="font-style:normal;font-variant:normal;font-weight:800;font-stretch:normal;font-family:Raleway;-inkscape-font-specification:'Raleway Ultra-Bold';fill:#00667f;fill-opacity:1;stroke-width:0.253169"
         id="path862" />
      <path
         d="m 32.479809,11.128039 h 1.080192 v 3.665902 q 0,0.22279 0.08101,0.317307 0.08101,0.09452 0.229541,0.09452 0.101268,0 0.202536,-0.027 0.108019,-0.03376 0.189033,-0.07426 l 0.141776,0.810144 q -0.202536,0.09452 -0.465833,0.148527 -0.263297,0.05401 -0.492838,0.05401 -0.459081,0 -0.715627,-0.243043 -0.249794,-0.249794 -0.249794,-0.702125 z"
         style="font-style:normal;font-variant:normal;font-weight:800;font-stretch:normal;font-family:Raleway;-inkscape-font-specification:'Raleway Ultra-Bold';fill:#00667f;fill-opacity:1;stroke-width:0.253169"
         id="path864" />
      <path
         d="m 35.476142,16.056416 -1.255723,-3.544381 h 1.113948 l 0.776388,2.572208 0.776388,-2.572208 h 1.01268 l -1.248972,3.544381 z"
         style="font-style:normal;font-variant:normal;font-weight:800;font-stretch:normal;font-family:Raleway;-inkscape-font-specification:'Raleway Ultra-Bold';fill:#00667f;fill-opacity:1;stroke-width:0.253169"
         id="path866" />
      <path
         d="m 38.311645,16.056416 v -3.544381 h 1.080192 v 3.544381 z m 0,-3.949453 v -0.978924 h 1.080192 v 0.978924 z"
         style="font-style:normal;font-variant:normal;font-weight:800;font-stretch:normal;font-family:Raleway;-inkscape-font-specification:'Raleway Ultra-Bold';fill:#00667f;fill-opacity:1;stroke-width:0.253169"
         id="path868" />
      <path
         d="m 39.911669,14.996477 q 0,-0.351062 0.195785,-0.614359 0.195785,-0.263297 0.540096,-0.411823 0.344311,-0.155278 0.78989,-0.155278 0.216039,0 0.425326,0.04051 0.209287,0.03376 0.364565,0.101268 v -0.155277 q 0,-0.290302 -0.175532,-0.44558 -0.175531,-0.155277 -0.533344,-0.155277 -0.297053,0 -0.56035,0.101268 -0.256546,0.101268 -0.546847,0.290301 L 40.0872,12.903605 q 0.351063,-0.229541 0.72913,-0.344311 0.384818,-0.114771 0.810144,-0.114771 0.796641,0 1.235469,0.384819 0.44558,0.378067 0.44558,1.100445 v 0.924915 q 0,0.162029 0.04726,0.229541 0.05401,0.06076 0.182282,0.07426 v 0.89791 q -0.135024,0.027 -0.256545,0.04051 -0.114771,0.0135 -0.202536,0.0135 -0.303804,0 -0.465833,-0.121521 -0.155278,-0.121522 -0.195785,-0.330809 l -0.02025,-0.155278 q -0.236292,0.303804 -0.567101,0.465833 -0.324058,0.155278 -0.681871,0.155278 -0.351063,0 -0.634613,-0.148527 -0.276799,-0.148526 -0.438828,-0.405072 -0.162029,-0.256545 -0.162029,-0.573852 z m 2.146882,0.135024 q 0.07426,-0.06076 0.121521,-0.135024 0.04726,-0.07426 0.04726,-0.141775 v -0.317306 q -0.135024,-0.05401 -0.303804,-0.08101 -0.162029,-0.03376 -0.303804,-0.03376 -0.297053,0 -0.492838,0.135024 -0.195785,0.128273 -0.195785,0.344311 0,0.121522 0.06751,0.22279 0.06751,0.101268 0.182283,0.162029 0.121521,0.06076 0.28355,0.06076 0.162029,0 0.324058,-0.06076 0.162028,-0.06076 0.270048,-0.155278 z"
         style="font-style:normal;font-variant:normal;font-weight:800;font-stretch:normal;font-family:Raleway;-inkscape-font-specification:'Raleway Ultra-Bold';fill:#00667f;fill-opacity:1;stroke-width:0.253169"
         id="path870" />
      <path
         d="m 45.461144,14.28085 q 0,-0.519843 0.202536,-0.931666 0.202536,-0.418574 0.553599,-0.661617 0.351062,-0.243044 0.810144,-0.243044 0.371316,0 0.67512,0.182283 0.303804,0.175531 0.459081,0.465833 v -1.9646 h 1.080192 v 3.726663 q 0,0.162029 0.05401,0.229541 0.05401,0.06076 0.175531,0.07426 v 0.89791 q -0.28355,0.05401 -0.459082,0.05401 -0.276799,0 -0.45233,-0.121521 -0.16878,-0.121522 -0.209287,-0.33756 l -0.02025,-0.182283 q -0.189033,0.330809 -0.513091,0.492838 -0.324058,0.162029 -0.681871,0.162029 -0.364565,0 -0.67512,-0.135024 -0.303804,-0.141776 -0.533345,-0.39157 -0.22279,-0.249794 -0.344311,-0.587354 -0.121522,-0.33756 -0.121522,-0.72913 z m 2.707231,0.438828 v -0.742632 q -0.06751,-0.182283 -0.195784,-0.317307 -0.121522,-0.135024 -0.283551,-0.216038 -0.155277,-0.08101 -0.317306,-0.08101 -0.175531,0 -0.324058,0.07426 -0.141775,0.07426 -0.249794,0.209287 -0.108019,0.128273 -0.16878,0.297053 -0.05401,0.16878 -0.05401,0.357814 0,0.195784 0.06076,0.364564 0.06751,0.162029 0.182282,0.290302 0.114771,0.121522 0.270048,0.189034 0.155278,0.06751 0.33756,0.06751 0.114771,0 0.22279,-0.03376 0.108019,-0.04051 0.202536,-0.101268 0.101268,-0.06076 0.182282,-0.155278 0.08101,-0.09452 0.135024,-0.202536 z"
         style="font-style:normal;font-variant:normal;font-weight:800;font-stretch:normal;font-family:Raleway;-inkscape-font-specification:'Raleway Ultra-Bold';fill:#00667f;fill-opacity:1;stroke-width:0.253169"
         id="path872" />
      <path
         d="m 51.773513,16.123928 q -0.452331,0 -0.803393,-0.141776 -0.351063,-0.148526 -0.600857,-0.39832 -0.243043,-0.249795 -0.371316,-0.573852 -0.128273,-0.330809 -0.128273,-0.688623 0,-0.513091 0.22279,-0.931666 0.229541,-0.425325 0.654866,-0.681871 0.425326,-0.263297 1.026183,-0.263297 0.600856,0 1.019431,0.256546 0.425326,0.256546 0.648115,0.67512 0.22279,0.411823 0.22279,0.89791 0,0.09452 -0.0135,0.189033 -0.0068,0.08777 -0.0135,0.155278 h -2.619466 q 0.02025,0.236292 0.128273,0.398321 0.11477,0.162029 0.290302,0.249794 0.175531,0.08102 0.371316,0.08102 0.243043,0 0.45233,-0.114771 0.216038,-0.11477 0.297053,-0.310555 l 0.918163,0.256546 q -0.135024,0.276799 -0.384818,0.492837 -0.243043,0.209287 -0.580604,0.330809 -0.330808,0.121522 -0.73588,0.121522 z m -0.78314,-2.167136 h 1.539274 q -0.027,-0.222789 -0.128273,-0.384818 -0.101268,-0.16878 -0.270048,-0.256546 -0.16878,-0.09452 -0.371316,-0.09452 -0.209287,0 -0.378067,0.09452 -0.162029,0.08777 -0.263297,0.256546 -0.101268,0.162029 -0.128273,0.384818 z"
         style="font-style:normal;font-variant:normal;font-weight:800;font-stretch:normal;font-family:Raleway;-inkscape-font-specification:'Raleway Ultra-Bold';fill:#00667f;fill-opacity:1;stroke-width:0.253169"
         id="path874" />
      <path
         d="m 56.821408,11.263063 h 1.194963 l 1.647293,4.793353 h -1.134202 l -0.371316,-1.073441 h -1.492015 l -0.364565,1.073441 h -1.134202 z m 1.154456,2.957026 -0.56035,-1.843078 -0.573852,1.843078 z"
         style="font-style:normal;font-variant:normal;font-weight:800;font-stretch:normal;font-family:Raleway;-inkscape-font-specification:'Raleway Ultra-Bold';fill:#00667f;fill-opacity:1;stroke-width:0.253169"
         id="path876" />
      <path
         d="m 60.006381,11.128039 h 1.080192 v 3.665902 q 0,0.22279 0.08101,0.317307 0.08102,0.09452 0.229541,0.09452 0.101268,0 0.202536,-0.027 0.108019,-0.03376 0.189034,-0.07426 l 0.141775,0.810144 q -0.202536,0.09452 -0.465833,0.148527 -0.263297,0.05401 -0.492838,0.05401 -0.459081,0 -0.715627,-0.243043 -0.249794,-0.249794 -0.249794,-0.702125 z"
         style="font-style:normal;font-variant:normal;font-weight:800;font-stretch:normal;font-family:Raleway;-inkscape-font-specification:'Raleway Ultra-Bold';fill:#00667f;fill-opacity:1;stroke-width:0.253169"
         id="path878" />
      <path
         d="m 67.885026,16.056416 h -1.080192 v -1.991605 q 0,-0.344311 -0.128273,-0.50634 -0.128273,-0.162028 -0.330809,-0.162028 -0.216038,0 -0.425326,0.175531 -0.209287,0.175531 -0.297052,0.45233 v 2.032112 h -1.080192 v -1.991605 q 0,-0.351062 -0.128273,-0.50634 -0.128273,-0.162028 -0.330809,-0.162028 -0.209287,0 -0.418574,0.175531 -0.209288,0.175531 -0.303804,0.45233 v 2.032112 h -1.080193 v -3.544381 h 0.972173 v 0.594106 q 0.195785,-0.317306 0.526594,-0.486086 0.33756,-0.175532 0.783139,-0.175532 0.438828,0 0.67512,0.209288 0.236292,0.202536 0.303804,0.479335 0.202536,-0.330809 0.533345,-0.50634 0.33756,-0.182283 0.756134,-0.182283 0.33756,0 0.546848,0.128273 0.209287,0.121522 0.317306,0.324058 0.108019,0.202536 0.148526,0.438828 0.04051,0.229541 0.04051,0.45233 z"
         style="font-style:normal;font-variant:normal;font-weight:800;font-stretch:normal;font-family:Raleway;-inkscape-font-specification:'Raleway Ultra-Bold';fill:#00667f;fill-opacity:1;stroke-width:0.253169"
         id="path880" />
      <path
         d="m 70.288447,16.123928 q -0.45233,0 -0.803393,-0.141776 -0.351062,-0.148526 -0.600856,-0.39832 -0.243044,-0.249795 -0.371316,-0.573852 -0.128273,-0.330809 -0.128273,-0.688623 0,-0.513091 0.222789,-0.931666 0.229541,-0.425325 0.654867,-0.681871 0.425325,-0.263297 1.026182,-0.263297 0.600857,0 1.019431,0.256546 0.425326,0.256546 0.648116,0.67512 0.222789,0.411823 0.222789,0.89791 0,0.09452 -0.0135,0.189033 -0.0068,0.08777 -0.0135,0.155278 h -2.619465 q 0.02025,0.236292 0.128273,0.398321 0.11477,0.162029 0.290301,0.249794 0.175531,0.08102 0.371316,0.08102 0.243043,0 0.452331,-0.114771 0.216038,-0.11477 0.297052,-0.310555 l 0.918164,0.256546 q -0.135024,0.276799 -0.384819,0.492837 -0.243043,0.209287 -0.580603,0.330809 -0.330809,0.121522 -0.735881,0.121522 z m -0.783139,-2.167136 h 1.539274 q -0.02701,-0.222789 -0.128273,-0.384818 -0.101268,-0.16878 -0.270048,-0.256546 -0.16878,-0.09452 -0.371316,-0.09452 -0.209287,0 -0.378067,0.09452 -0.162029,0.08777 -0.263297,0.256546 -0.101268,0.162029 -0.128273,0.384818 z"
         style="font-style:normal;font-variant:normal;font-weight:800;font-stretch:normal;font-family:Raleway;-inkscape-font-specification:'Raleway Ultra-Bold';fill:#00667f;fill-opacity:1;stroke-width:0.253169"
         id="path882" />
      <path
         d="m 72.671609,16.056416 v -3.544381 h 1.080192 v 3.544381 z m 0,-3.949453 v -0.978924 h 1.080192 v 0.978924 z"
         style="font-style:normal;font-variant:normal;font-weight:800;font-stretch:normal;font-family:Raleway;-inkscape-font-specification:'Raleway Ultra-Bold';fill:#00667f;fill-opacity:1;stroke-width:0.253169"
         id="path884" />
      <path
         d="m 74.291888,14.28085 q 0,-0.519843 0.202536,-0.931666 0.202536,-0.418574 0.553598,-0.661617 0.351063,-0.243044 0.810144,-0.243044 0.371316,0 0.67512,0.182283 0.303804,0.175531 0.459082,0.465833 v -1.9646 h 1.080192 v 3.726663 q 0,0.162029 0.05401,0.229541 0.05401,0.06076 0.175531,0.07426 v 0.89791 q -0.283551,0.05401 -0.459082,0.05401 -0.276799,0 -0.45233,-0.121521 -0.16878,-0.121522 -0.209287,-0.33756 l -0.02025,-0.182283 q -0.189034,0.330809 -0.513091,0.492838 -0.324058,0.162029 -0.681871,0.162029 -0.364565,0 -0.67512,-0.135024 -0.303804,-0.141776 -0.533345,-0.39157 -0.22279,-0.249794 -0.344311,-0.587354 -0.121522,-0.33756 -0.121522,-0.72913 z m 2.707231,0.438828 v -0.742632 q -0.06751,-0.182283 -0.195785,-0.317307 -0.121521,-0.135024 -0.28355,-0.216038 -0.155278,-0.08101 -0.317306,-0.08101 -0.175532,0 -0.324058,0.07426 -0.141775,0.07426 -0.249794,0.209287 -0.10802,0.128273 -0.16878,0.297053 -0.05401,0.16878 -0.05401,0.357814 0,0.195784 0.06076,0.364564 0.06751,0.162029 0.182282,0.290302 0.114771,0.121522 0.270048,0.189034 0.155278,0.06751 0.33756,0.06751 0.114771,0 0.22279,-0.03376 0.108019,-0.04051 0.202536,-0.101268 0.101268,-0.06076 0.182282,-0.155278 0.08101,-0.09452 0.135024,-0.202536 z"
         style="font-style:normal;font-variant:normal;font-weight:800;font-stretch:normal;font-family:Raleway;-inkscape-font-specification:'Raleway Ultra-Bold';fill:#00667f;fill-opacity:1;stroke-width:0.253169"
         id="path886" />
      <path
         d="m 78.686914,14.996477 q 0,-0.351062 0.195785,-0.614359 0.195784,-0.263297 0.540096,-0.411823 0.344311,-0.155278 0.78989,-0.155278 0.216038,0 0.425326,0.04051 0.209287,0.03376 0.364564,0.101268 v -0.155277 q 0,-0.290302 -0.175531,-0.44558 -0.175531,-0.155277 -0.533345,-0.155277 -0.297052,0 -0.560349,0.101268 -0.256546,0.101268 -0.546847,0.290301 l -0.324058,-0.688622 q 0.351062,-0.229541 0.72913,-0.344311 0.384818,-0.114771 0.810144,-0.114771 0.796641,0 1.235469,0.384819 0.445579,0.378067 0.445579,1.100445 v 0.924915 q 0,0.162029 0.04726,0.229541 0.05401,0.06076 0.182282,0.07426 v 0.89791 q -0.135024,0.027 -0.256545,0.04051 -0.114771,0.0135 -0.202536,0.0135 -0.303804,0 -0.465833,-0.121521 -0.155278,-0.121522 -0.195785,-0.330809 l -0.02025,-0.155278 q -0.236292,0.303804 -0.5671,0.465833 -0.324058,0.155278 -0.681872,0.155278 -0.351062,0 -0.634612,-0.148527 -0.2768,-0.148526 -0.438828,-0.405072 -0.162029,-0.256545 -0.162029,-0.573852 z m 2.146881,0.135024 q 0.07426,-0.06076 0.121522,-0.135024 0.04726,-0.07426 0.04726,-0.141775 v -0.317306 q -0.135024,-0.05401 -0.303804,-0.08101 -0.162028,-0.03376 -0.303804,-0.03376 -0.297052,0 -0.492837,0.135024 -0.195785,0.128273 -0.195785,0.344311 0,0.121522 0.06751,0.22279 0.06751,0.101268 0.182282,0.162029 0.121522,0.06076 0.283551,0.06076 0.162029,0 0.324057,-0.06076 0.162029,-0.06076 0.270048,-0.155278 z"
         style="font-style:normal;font-variant:normal;font-weight:800;font-stretch:normal;font-family:Raleway;-inkscape-font-specification:'Raleway Ultra-Bold';fill:#00667f;fill-opacity:1;stroke-width:0.253169"
         id="path888" />
    </g>
  </g>
</svg>
